<svg xmlns="http://www.w3.org/2000/svg" viewBox="0 0 180 165"><defs><linearGradient id="g" x1="0" y1="0" x2="1" y2="1"><stop stop-color="#3a2d27"/><stop offset=".55" stop-color="#171311"/><stop offset="1" stop-color="#090909"/></linearGradient></defs><path d="M9 151C-2 101 3 47 39 19 61 2 119 1 143 19c35 27 41 83 28 132-14-18-30-31-45-39-18-10-55-10-73 0-17 9-31 22-44 39Z" fill="url(#g)" stroke="#e6ad55" stroke-width="3"/><path d="M17 143C8 97 14 52 45 27 67 10 113 10 136 27c30 23 37 69 26 116" fill="none" stroke="#f6c36b" stroke-opacity=".45" stroke-width="2"/><g fill="#efb95b"><path d="M28 65l3 8 8 3-8 3-3 8-3-8-8-3 8-3 3-8Z"/><path d="M149 91l2 6 6 2-6 2-2 6-2-6-6-2 6-2 2-6Z"/></g></svg>